<svg width="16" height="16" viewBox="0 0 16 16" fill="none" xmlns="http://www.w3.org/2000/svg">
<path d="M8.33333 8C9.04058 8 9.71885 7.63125 10.219 6.97487C10.719 6.3185 11 5.42826 11 4.5C11 3.57174 10.719 2.6815 10.219 2.02513C9.71885 1.36875 9.04058 1 8.33333 1H6C4.34315 1 3 2.34315 3 4V8" stroke="black" stroke-width="1.5" stroke-linecap="round" stroke-linejoin="round"/>
<path d="M9.92308 15C10.7391 15 11.5218 14.6313 12.0988 13.9749C12.6758 13.3185 13 12.4283 13 11.5C13 10.5717 12.6758 9.6815 12.0988 9.02513C11.5218 8.36875 10.7391 8 9.92308 8H3V12C3 13.6569 4.34315 15 6 15H9.92308Z" stroke="black" stroke-width="1.5" stroke-linecap="round" stroke-linejoin="round"/>
</svg>
